<svg width="60.000000" height="60.000000" viewBox="0 0 60 50" fill="none" xmlns="http://www.w3.org/2000/svg" xmlns:xlink="http://www.w3.org/1999/xlink">
	<desc>
			Created with Pixso.
	</desc>
	<defs>
		<filter id="filter_591_1350_dd" x="0.000000" y="0.000000" width="60.000000" height="60.000000" filterUnits="userSpaceOnUse" color-interpolation-filters="sRGB">
			<feFlood flood-opacity="0" result="BackgroundImageFix"/>
			<feColorMatrix in="SourceAlpha" type="matrix" values="0 0 0 0 0 0 0 0 0 0 0 0 0 0 0 0 0 0 127 0" result="hardAlpha"/>
			<feOffset dx="0" dy="4"/>
			<feGaussianBlur stdDeviation="2.66667"/>
			<feComposite in2="hardAlpha" operator="out" k2="-1" k3="1"/>
			<feColorMatrix type="matrix" values="0 0 0 0 0.094118 0 0 0 0 0.094118 0 0 0 0 0.094118 0 0 0 0.1 0"/>
			<feBlend mode="normal" in2="BackgroundImageFix" result="effect_dropShadow_1"/>
			<feBlend mode="normal" in="SourceGraphic" in2="effect_dropShadow_1" result="shape"/>
		</filter>
		<clipPath id="clip591_1351">
			<rect id="icons/Grid/Line" width="24.000000" height="24.000000" transform="translate(18.000000 14.000000)" fill="white" fill-opacity="0"/>
		</clipPath>
	</defs>
	<g filter="url(#filter_591_1350_dd)">
		<rect id="icon" rx="22.000000" width="44.000000" height="44.000000" transform="translate(8.000000 4.000000)" fill="#1A1A1A" fill-opacity="1.000000"/>
		<g clip-path="url(#clip591_1351)">
			<path id="Shape" d="M35.5 29C35.0469 29 34.4082 29.0625 33.7441 29.1536C33.4336 29.1962 33.1953 29.4331 33.1543 29.7438C33.0625 30.4089 33 31.0478 33 31.5C33 31.9522 33.0625 32.5911 33.1543 33.2562C33.1953 33.5669 33.4336 33.8038 33.7441 33.8464C34.4082 33.9375 35.0469 34 35.5 34C35.9531 34 36.5918 33.9375 37.2559 33.8464C37.5664 33.8038 37.8047 33.5669 37.8457 33.2562C37.9375 32.5911 38 31.9522 38 31.5C38 31.0478 37.9375 30.4089 37.8457 29.7438C37.8047 29.4331 37.5664 29.1962 37.2559 29.1536C36.5918 29.0625 35.9531 29 35.5 29ZM33.4727 27.1721C32.2734 27.3364 31.3359 28.2725 31.1719 29.4724C31.0781 30.1606 31 30.9081 31 31.5C31 32.0919 31.0781 32.8394 31.1719 33.5276C31.3359 34.7275 32.2734 35.6636 33.4727 35.8279C34.1602 35.9222 34.9082 36 35.5 36C36.0918 36 36.8398 35.9222 37.5273 35.8279C38.7266 35.6636 39.6641 34.7275 39.8281 33.5276C39.9219 32.8394 40 32.0919 40 31.5C40 30.9081 39.9219 30.1606 39.8281 29.4724C39.6641 28.2725 38.7266 27.3364 37.5273 27.1721C36.8398 27.0778 36.0918 27 35.5 27C34.9082 27 34.1602 27.0778 33.4727 27.1721Z" fill="#E0E4E7" fill-opacity="1.000000" fill-rule="evenodd"/>
			<path id="Shape" d="M24.5 29C24.0469 29 23.4082 29.0625 22.7441 29.1536C22.4336 29.1962 22.1953 29.4331 22.1543 29.7438C22.0625 30.4089 22 31.0478 22 31.5C22 31.9522 22.0625 32.5911 22.1543 33.2562C22.1953 33.5669 22.4336 33.8038 22.7441 33.8464C23.4082 33.9375 24.0469 34 24.5 34C24.9531 34 25.5918 33.9375 26.2559 33.8464C26.5664 33.8038 26.8047 33.5669 26.8457 33.2562C26.9375 32.5911 27 31.9522 27 31.5C27 31.0478 26.9375 30.4089 26.8457 29.7438C26.8047 29.4331 26.5664 29.1962 26.2559 29.1536C25.5918 29.0625 24.9531 29 24.5 29ZM22.4727 27.1721C21.2734 27.3364 20.3359 28.2725 20.1719 29.4724C20.0781 30.1606 20 30.9081 20 31.5C20 32.0919 20.0781 32.8394 20.1719 33.5276C20.3359 34.7275 21.2734 35.6636 22.4727 35.8279C23.1602 35.9222 23.9082 36 24.5 36C25.0918 36 25.8398 35.9222 26.5273 35.8279C27.7266 35.6636 28.6641 34.7275 28.8281 33.5276C28.9219 32.8394 29 32.0919 29 31.5C29 30.9081 28.9219 30.1606 28.8281 29.4724C28.6641 28.2725 27.7266 27.3364 26.5273 27.1721C25.8398 27.0778 25.0918 27 24.5 27C23.9082 27 23.1602 27.0778 22.4727 27.1721Z" fill="#E0E4E7" fill-opacity="1.000000" fill-rule="evenodd"/>
			<path id="Shape" d="M35.5 18C35.0469 18 34.4082 18.0625 33.7441 18.1536C33.4336 18.1962 33.1953 18.4331 33.1543 18.7438C33.0625 19.4089 33 20.0478 33 20.5C33 20.9522 33.0625 21.5911 33.1543 22.2562C33.1953 22.5669 33.4336 22.8038 33.7441 22.8464C34.4082 22.9375 35.0469 23 35.5 23C35.9531 23 36.5918 22.9375 37.2559 22.8464C37.5664 22.8038 37.8047 22.5669 37.8457 22.2562C37.9375 21.5911 38 20.9522 38 20.5C38 20.0478 37.9375 19.4089 37.8457 18.7438C37.8047 18.4331 37.5664 18.1962 37.2559 18.1536C36.5918 18.0625 35.9531 18 35.5 18ZM33.4727 16.1721C32.2734 16.3364 31.3359 17.2725 31.1719 18.4724C31.0781 19.1606 31 19.9081 31 20.5C31 21.0919 31.0781 21.8394 31.1719 22.5276C31.3359 23.7275 32.2734 24.6636 33.4727 24.8279C34.1602 24.9222 34.9082 25 35.5 25C36.0918 25 36.8398 24.9222 37.5273 24.8279C38.7266 24.6636 39.6641 23.7275 39.8281 22.5276C39.9219 21.8394 40 21.0919 40 20.5C40 19.9081 39.9219 19.1606 39.8281 18.4724C39.6641 17.2725 38.7266 16.3364 37.5273 16.1721C36.8398 16.0778 36.0918 16 35.5 16C34.9082 16 34.1602 16.0778 33.4727 16.1721Z" fill="#E0E4E7" fill-opacity="1.000000" fill-rule="evenodd"/>
			<path id="Shape" d="M24.5 18C24.0469 18 23.4082 18.0625 22.7441 18.1536C22.4336 18.1962 22.1953 18.4331 22.1543 18.7438C22.0625 19.4089 22 20.0478 22 20.5C22 20.9522 22.0625 21.5911 22.1543 22.2562C22.1953 22.5669 22.4336 22.8038 22.7441 22.8464C23.4082 22.9375 24.0469 23 24.5 23C24.9531 23 25.5918 22.9375 26.2559 22.8464C26.5664 22.8038 26.8047 22.5669 26.8457 22.2562C26.9375 21.5911 27 20.9522 27 20.5C27 20.0478 26.9375 19.4089 26.8457 18.7438C26.8047 18.4331 26.5664 18.1962 26.2559 18.1536C25.5918 18.0625 24.9531 18 24.5 18ZM22.4727 16.1721C21.2734 16.3364 20.3359 17.2725 20.1719 18.4724C20.0781 19.1606 20 19.9081 20 20.5C20 21.0919 20.0781 21.8394 20.1719 22.5276C20.3359 23.7275 21.2734 24.6636 22.4727 24.8279C23.1602 24.9222 23.9082 25 24.5 25C25.0918 25 25.8398 24.9222 26.5273 24.8279C27.7266 24.6636 28.6641 23.7275 28.8281 22.5276C28.9219 21.8394 29 21.0919 29 20.5C29 19.9081 28.9219 19.1606 28.8281 18.4724C28.6641 17.2725 27.7266 16.3364 26.5273 16.1721C25.8398 16.0778 25.0918 16 24.5 16C23.9082 16 23.1602 16.0778 22.4727 16.1721Z" fill="#E0E4E7" fill-opacity="1.000000" fill-rule="evenodd"/>
		</g>
	</g>
</svg>
