<svg width="44.000000" height="44.000000" viewBox="0 0 44 44" fill="none" xmlns="http://www.w3.org/2000/svg" xmlns:xlink="http://www.w3.org/1999/xlink">
	<desc>
			Created with Pixso.
	</desc>
	<defs>
		<clipPath id="clip591_1353">
			<rect id="icons/Settings 01/Line" width="24.000000" height="24.000000" transform="translate(10.000000 10.000000)" fill="white" fill-opacity="0"/>
		</clipPath>
	</defs>
	<rect id="filter" rx="22.000000" width="44.000000" height="44.000000" fill="#E03C31" fill-opacity="1.000000"/>
	<g clip-path="url(#clip591_1353)">
		<path id="Shape" d="M12 26C11.4473 26 11 26.4477 11 27C11 27.5523 11.4473 28 12 28L23 28C23.5527 28 24 27.5523 24 27C24 26.4477 23.5527 26 23 26L12 26ZM29 26C28.4473 26 28 26.4477 28 27C28 27.5523 28.4473 28 29 28L32 28C32.5527 28 33 27.5523 33 27C33 26.4477 32.5527 26 32 26L29 26Z" fill="#FFFFFF" fill-opacity="1.000000" fill-rule="evenodd"/>
		<path id="Shape" d="M26 29C27.1055 29 28 28.1046 28 27C28 25.8954 27.1055 25 26 25C24.8945 25 24 25.8954 24 27C24 28.1046 24.8945 29 26 29ZM26 31C28.209 31 30 29.2092 30 27C30 24.7908 28.209 23 26 23C23.791 23 22 24.7908 22 27C22 29.2092 23.791 31 26 31Z" fill="#FFFFFF" fill-opacity="1.000000" fill-rule="evenodd"/>
		<path id="Shape" d="M12 16C11.4473 16 11 16.4477 11 17C11 17.5523 11.4473 18 12 18L15 18C15.5527 18 16 17.5523 16 17C16 16.4477 15.5527 16 15 16L12 16ZM21 16C20.4473 16 20 16.4477 20 17C20 17.5523 20.4473 18 21 18L32 18C32.5527 18 33 17.5523 33 17C33 16.4477 32.5527 16 32 16L21 16Z" fill="#FFFFFF" fill-opacity="1.000000" fill-rule="evenodd"/>
		<path id="Shape" d="M18 19C19.1055 19 20 18.1046 20 17C20 15.8954 19.1055 15 18 15C16.8945 15 16 15.8954 16 17C16 18.1046 16.8945 19 18 19ZM18 21C20.209 21 22 19.2092 22 17C22 14.7908 20.209 13 18 13C15.791 13 14 14.7908 14 17C14 19.2092 15.791 21 18 21Z" fill="#FFFFFF" fill-opacity="1.000000" fill-rule="evenodd"/>
	</g>
</svg>
