<svg width="1290" height="546" viewBox="0 0 1290 546" fill="none" xmlns="http://www.w3.org/2000/svg">
<path fill-rule="evenodd" clip-rule="evenodd" d="M0 20C0 8.95431 8.95431 0 20 0H397.286C403.124 0 408.671 2.55125 412.471 6.98417L420.654 16.5315C424.454 20.9644 430.001 23.5156 435.839 23.5156H854.161C859.999 23.5156 865.546 20.9644 869.346 16.5315L877.529 6.98417C881.329 2.55125 886.876 0 892.714 0H1270C1281.05 0 1290 8.95431 1290 20V525.562C1290 536.608 1281.05 545.562 1270 545.562H20C8.95431 545.562 0 536.608 0 525.562V20ZM866.879 525.481C864.645 522.875 861.384 521.375 857.952 521.375H432.049C428.616 521.375 425.355 522.875 423.121 525.481C416.584 533.108 422.003 544.891 432.049 544.891H857.952C867.997 544.891 873.416 533.108 866.879 525.481Z" fill="#0F0F0F"/>
</svg>
