<svg width="155" height="30" viewBox="0 0 155 30" fill="none" xmlns="http://www.w3.org/2000/svg">
<g id="&#208;&#160;&#208;&#181;&#209;&#129;&#209;&#131;&#209;&#128;&#209;&#129; 5 1" clip-path="url(#clip0_90_504)">
<g id="&#208;&#161;&#208;&#187;&#208;&#190;&#208;&#185; 1">
<g id="Group">
<g id="Group_2">
<path id="Vector" d="M116.67 13.8477V11.9827H116.975V13.8477H116.67Z" fill="white"/>
<path id="Vector_2" d="M117.634 13.8477V11.9827H117.929L118.783 13.152C118.783 13.152 118.806 13.1792 118.82 13.1973C118.833 13.2177 118.847 13.2381 118.858 13.2562C118.872 13.2766 118.881 13.2925 118.886 13.3061H118.899V11.9827H119.195V13.8477H118.911L118.047 12.6648C118.034 12.6421 118.015 12.6149 117.993 12.581C117.97 12.547 117.954 12.522 117.943 12.5039H117.929V13.8477H117.634Z" fill="white"/>
<path id="Vector_3" d="M119.854 13.8477V11.9827H120.576C120.769 11.9827 120.933 12.0167 121.069 12.0824C121.205 12.1481 121.31 12.2501 121.385 12.3861C121.458 12.522 121.496 12.6988 121.496 12.9141C121.496 13.1293 121.46 13.3038 121.385 13.4421C121.312 13.5803 121.205 13.6823 121.069 13.748C120.933 13.8137 120.769 13.8477 120.576 13.8477H119.854ZM120.158 13.5871H120.571C120.667 13.5871 120.753 13.5735 120.828 13.5486C120.903 13.5236 120.967 13.4851 121.019 13.4307C121.071 13.3786 121.11 13.3106 121.137 13.2313C121.164 13.1497 121.176 13.0546 121.176 12.9435V12.8869C121.176 12.7736 121.162 12.6784 121.137 12.5968C121.11 12.5152 121.071 12.4495 121.019 12.3974C120.967 12.3453 120.903 12.3068 120.828 12.2796C120.753 12.2547 120.667 12.2411 120.571 12.2411H120.158V13.5848V13.5871Z" fill="white"/>
<path id="Vector_4" d="M122.826 13.8817C122.667 13.8817 122.528 13.8568 122.412 13.8047C122.296 13.7526 122.208 13.6732 122.144 13.5645C122.083 13.4557 122.051 13.3175 122.051 13.1521V11.985H122.355V13.1589C122.355 13.3129 122.396 13.4285 122.478 13.5078C122.56 13.5849 122.676 13.6257 122.823 13.6257C122.971 13.6257 123.091 13.5871 123.175 13.5078C123.26 13.4308 123.303 13.3129 123.303 13.1589V11.985H123.607V13.1521C123.607 13.3197 123.575 13.4557 123.514 13.5645C123.45 13.6732 123.362 13.7526 123.244 13.8047C123.125 13.8568 122.987 13.8817 122.823 13.8817H122.826Z" fill="white"/>
<path id="Vector_5" d="M124.941 13.8817C124.839 13.8817 124.741 13.8704 124.645 13.85C124.55 13.8296 124.468 13.7956 124.395 13.7503C124.323 13.7049 124.266 13.646 124.223 13.5735C124.182 13.501 124.159 13.4171 124.159 13.3174C124.159 13.3061 124.159 13.297 124.159 13.2857C124.159 13.2744 124.159 13.2676 124.159 13.2608H124.464C124.464 13.2608 124.464 13.2744 124.464 13.2857C124.464 13.297 124.464 13.3061 124.464 13.3129C124.464 13.3809 124.484 13.4375 124.523 13.4851C124.564 13.5327 124.618 13.5667 124.691 13.5916C124.764 13.6143 124.845 13.6279 124.938 13.6279C124.988 13.6279 125.038 13.6256 125.086 13.6188C125.134 13.612 125.177 13.603 125.216 13.5894C125.254 13.5758 125.288 13.5576 125.318 13.5372C125.347 13.5169 125.37 13.4919 125.386 13.4625C125.402 13.433 125.411 13.399 125.411 13.3628C125.411 13.3038 125.395 13.2563 125.361 13.2177C125.327 13.1792 125.282 13.1475 125.225 13.1226C125.168 13.0976 125.102 13.075 125.032 13.0546C124.959 13.0342 124.886 13.0138 124.809 12.9957C124.732 12.9775 124.659 12.9526 124.586 12.9254C124.514 12.8982 124.45 12.8642 124.393 12.8257C124.336 12.7872 124.291 12.7373 124.257 12.6784C124.223 12.6195 124.207 12.547 124.207 12.4631C124.207 12.3793 124.225 12.3091 124.259 12.2456C124.293 12.1822 124.343 12.13 124.409 12.087C124.475 12.0439 124.552 12.0122 124.643 11.9895C124.734 11.9669 124.836 11.9578 124.952 11.9578C125.05 11.9578 125.143 11.9692 125.229 11.9895C125.316 12.0099 125.393 12.0417 125.459 12.087C125.525 12.13 125.575 12.1867 125.613 12.2524C125.652 12.3181 125.67 12.3997 125.67 12.4926V12.5243H125.368V12.4881C125.368 12.4292 125.35 12.3816 125.316 12.3408C125.282 12.3 125.234 12.2705 125.17 12.2479C125.109 12.2252 125.036 12.2162 124.954 12.2162C124.859 12.2162 124.777 12.2252 124.711 12.2456C124.645 12.266 124.595 12.2909 124.564 12.3249C124.53 12.3589 124.514 12.3997 124.514 12.445C124.514 12.4971 124.532 12.5402 124.566 12.5742C124.6 12.6082 124.645 12.6354 124.704 12.6603C124.761 12.683 124.827 12.7056 124.898 12.7237C124.97 12.7419 125.043 12.7623 125.118 12.7827C125.193 12.8031 125.268 12.828 125.338 12.8552C125.411 12.8824 125.475 12.9164 125.531 12.9549C125.588 12.9934 125.634 13.0433 125.67 13.1022C125.704 13.1611 125.722 13.2336 125.722 13.3174C125.722 13.4511 125.688 13.5599 125.622 13.646C125.556 13.7321 125.463 13.791 125.345 13.8296C125.227 13.8681 125.093 13.8862 124.943 13.8862L124.941 13.8817Z" fill="white"/>
<path id="Vector_6" d="M126.743 13.8477V12.2433H126.125V11.9827H127.674V12.2433H127.049V13.8477H126.745H126.743Z" fill="white"/>
<path id="Vector_7" d="M128.158 13.8477V11.9827H129.142C129.273 11.9827 129.385 12.0054 129.471 12.053C129.557 12.1006 129.623 12.1663 129.666 12.2501C129.71 12.334 129.732 12.4337 129.732 12.5447C129.732 12.6693 129.705 12.7781 129.648 12.871C129.591 12.9639 129.512 13.0319 129.407 13.075L129.798 13.8477H129.466L129.112 13.1271H128.462V13.8477H128.158ZM128.462 12.871H129.117C129.214 12.871 129.291 12.8416 129.344 12.7849C129.398 12.726 129.423 12.6467 129.423 12.5424C129.423 12.479 129.412 12.4246 129.387 12.3815C129.364 12.3362 129.328 12.3022 129.282 12.2796C129.237 12.2569 129.18 12.2433 129.114 12.2433H128.46V12.871H128.462Z" fill="white"/>
<path id="Vector_8" d="M130.341 13.8477V11.9827H130.646V13.8477H130.341Z" fill="white"/>
<path id="Vector_9" d="M131.114 13.8477L131.848 11.9827H132.238L132.975 13.8477H132.647L132.482 13.4149H131.595L131.43 13.8477H131.116H131.114ZM131.691 13.1565H132.377L132.168 12.6104C132.163 12.5946 132.154 12.5719 132.143 12.5424C132.132 12.513 132.12 12.4813 132.109 12.4473C132.098 12.4133 132.086 12.377 132.073 12.343C132.061 12.3068 132.05 12.275 132.041 12.2456H132.025C132.014 12.2796 132 12.3204 131.984 12.368C131.968 12.4155 131.952 12.4609 131.936 12.5039C131.92 12.547 131.907 12.5832 131.898 12.6104L131.691 13.1565Z" fill="white"/>
<path id="Vector_10" d="M133.443 13.8477V11.9827H133.747V13.5848H134.679V13.8477H133.44H133.443Z" fill="white"/>
<path id="Vector_11" d="M135.944 13.8477V11.9827H136.422L136.785 13.1135C136.797 13.1452 136.808 13.1837 136.817 13.2245C136.828 13.2653 136.837 13.3061 136.849 13.3446C136.86 13.3831 136.867 13.4171 136.871 13.4443H136.894C136.899 13.4171 136.903 13.3854 136.912 13.3469C136.921 13.3084 136.931 13.2698 136.942 13.2268C136.951 13.186 136.962 13.1452 136.974 13.109L137.34 11.9805H137.808V13.8454H137.505V12.8234C137.505 12.7555 137.505 12.6829 137.508 12.6082C137.51 12.5334 137.512 12.4677 137.512 12.4087C137.512 12.3498 137.514 12.3136 137.514 12.2977H137.492C137.487 12.3181 137.48 12.3521 137.467 12.3997C137.453 12.4473 137.44 12.4994 137.424 12.5538C137.41 12.6082 137.396 12.6557 137.383 12.6943L137.003 13.8454H136.733L136.353 12.6988C136.342 12.6648 136.331 12.624 136.317 12.5764C136.303 12.5288 136.292 12.4813 136.278 12.4314C136.265 12.3816 136.256 12.3385 136.247 12.2977H136.224C136.224 12.3408 136.226 12.3952 136.228 12.4586C136.228 12.5221 136.228 12.5855 136.233 12.6512C136.233 12.7147 136.235 12.7736 136.235 12.8234V13.8454H135.94L135.944 13.8477Z" fill="white"/>
<path id="Vector_12" d="M138.469 13.8477V11.9827H139.918V12.2433H138.773V12.7622H139.798V13.0228H138.773V13.5848H139.934V13.8454H138.466L138.469 13.8477Z" fill="white"/>
<path id="Vector_13" d="M140.986 13.8477V12.2433H140.368V11.9827H141.918V12.2433H141.293V13.8477H140.988H140.986Z" fill="white"/>
<path id="Vector_14" d="M141.997 13.8477L142.731 11.9827H143.122L143.858 13.8477H143.531L143.365 13.4149H142.479L142.313 13.8477H141.999H141.997ZM142.574 13.1565H143.26L143.051 12.6104C143.047 12.5946 143.038 12.5719 143.026 12.5424C143.015 12.513 143.004 12.4813 142.992 12.4473C142.981 12.4133 142.97 12.377 142.956 12.343C142.945 12.3068 142.933 12.275 142.924 12.2456H142.908C142.897 12.2796 142.883 12.3204 142.867 12.368C142.851 12.4155 142.835 12.4609 142.82 12.5039C142.804 12.547 142.79 12.5832 142.781 12.6104L142.574 13.1565Z" fill="white"/>
<path id="Vector_15" d="M144.657 13.8477L143.967 11.9827H144.296L144.76 13.2857C144.769 13.3084 144.778 13.3333 144.787 13.3627C144.796 13.3922 144.805 13.4194 144.814 13.4466C144.823 13.4738 144.832 13.4964 144.839 13.5168H144.853C144.86 13.4964 144.869 13.4738 144.878 13.4488C144.887 13.4239 144.896 13.3967 144.905 13.3695C144.914 13.3423 144.923 13.3152 144.932 13.2902L145.391 11.985H145.709L145.016 13.8499H144.657V13.8477Z" fill="white"/>
<path id="Vector_16" d="M146.18 13.8477V11.9827H147.63V12.2433H146.484V12.7622H147.509V13.0228H146.484V13.5848H147.645V13.8454H146.178L146.18 13.8477Z" fill="white"/>
<path id="Vector_17" d="M148.227 13.8477V11.9827H149.211C149.343 11.9827 149.454 12.0054 149.54 12.053C149.627 12.1006 149.693 12.1663 149.736 12.2501C149.779 12.334 149.802 12.4337 149.802 12.5447C149.802 12.6693 149.774 12.7781 149.718 12.871C149.661 12.9639 149.581 13.0319 149.477 13.075L149.867 13.8477H149.536L149.181 13.1271H148.531V13.8477H148.227ZM148.531 12.871H149.186C149.284 12.871 149.361 12.8416 149.413 12.7849C149.468 12.726 149.493 12.6467 149.493 12.5424C149.493 12.479 149.481 12.4246 149.456 12.3815C149.434 12.3362 149.397 12.3022 149.352 12.2796C149.306 12.2569 149.249 12.2433 149.184 12.2433H148.529V12.871H148.531Z" fill="white"/>
<path id="Vector_18" d="M151.081 13.8817C150.979 13.8817 150.881 13.8704 150.786 13.85C150.69 13.8296 150.608 13.7956 150.536 13.7503C150.463 13.7049 150.406 13.646 150.363 13.5735C150.322 13.501 150.299 13.4171 150.299 13.3174C150.299 13.3061 150.299 13.297 150.299 13.2857C150.299 13.2744 150.299 13.2676 150.299 13.2608H150.604C150.604 13.2608 150.604 13.2744 150.604 13.2857C150.604 13.297 150.604 13.3061 150.604 13.3129C150.604 13.3809 150.624 13.4375 150.663 13.4851C150.704 13.5327 150.758 13.5667 150.831 13.5916C150.904 13.6143 150.985 13.6279 151.079 13.6279C151.129 13.6279 151.179 13.6256 151.226 13.6188C151.274 13.612 151.317 13.603 151.356 13.5894C151.394 13.5758 151.429 13.5576 151.458 13.5372C151.488 13.5169 151.51 13.4919 151.526 13.4625C151.542 13.433 151.551 13.399 151.551 13.3628C151.551 13.3038 151.535 13.2563 151.501 13.2177C151.467 13.1792 151.422 13.1475 151.365 13.1226C151.308 13.0976 151.242 13.075 151.172 13.0546C151.099 13.0342 151.026 13.0138 150.949 12.9957C150.872 12.9775 150.799 12.9526 150.726 12.9254C150.654 12.8982 150.59 12.8642 150.533 12.8257C150.477 12.7872 150.431 12.7373 150.397 12.6784C150.363 12.6195 150.347 12.547 150.347 12.4631C150.347 12.3793 150.365 12.3091 150.399 12.2456C150.433 12.1822 150.483 12.13 150.549 12.087C150.615 12.0439 150.692 12.0122 150.783 11.9895C150.874 11.9669 150.976 11.9578 151.092 11.9578C151.19 11.9578 151.283 11.9692 151.369 11.9895C151.456 12.0099 151.533 12.0417 151.599 12.087C151.665 12.13 151.715 12.1867 151.753 12.2524C151.792 12.3181 151.81 12.3997 151.81 12.4926V12.5243H151.508V12.4881C151.508 12.4292 151.49 12.3816 151.456 12.3408C151.422 12.3 151.374 12.2705 151.31 12.2479C151.249 12.2252 151.176 12.2162 151.095 12.2162C150.999 12.2162 150.917 12.2252 150.851 12.2456C150.786 12.266 150.736 12.2909 150.704 12.3249C150.67 12.3589 150.654 12.3997 150.654 12.445C150.654 12.4971 150.672 12.5402 150.706 12.5742C150.74 12.6082 150.786 12.6354 150.845 12.6603C150.901 12.683 150.967 12.7056 151.038 12.7237C151.11 12.7419 151.183 12.7623 151.258 12.7827C151.333 12.8031 151.408 12.828 151.479 12.8552C151.551 12.8824 151.615 12.9164 151.672 12.9549C151.728 12.9934 151.774 13.0433 151.81 13.1022C151.844 13.1611 151.862 13.2336 151.862 13.3174C151.862 13.4511 151.828 13.5599 151.763 13.646C151.697 13.7321 151.603 13.791 151.485 13.8296C151.367 13.8681 151.233 13.8862 151.083 13.8862L151.081 13.8817Z" fill="white"/>
<path id="Vector_19" d="M152.432 13.8477V11.9827H153.882V12.2433H152.737V12.7622H153.762V13.0228H152.737V13.5848H153.898V13.8454H152.43L152.432 13.8477Z" fill="white"/>
</g>
<g id="Group_3">
<path id="Vector_20" d="M105.521 15.0012H96.5307L107.105 0.00231934H95.1947C93.2316 0.00231934 91.3981 0.954053 90.2689 2.55161L83.5754 12.0485L76.8819 2.55161C75.7595 0.956319 73.9168 0.00231934 71.9629 0.00231934H59.6165L60.548 1.29169L68.6388 12.504C69.7658 14.0721 71.5857 15.0012 73.5192 15.0012H81.4942L72.2901 28.0603C71.9901 28.4863 71.3585 28.4863 71.0586 28.0603L69.5908 25.9733L53.0775 2.55387C51.9574 0.956319 50.1147 0.00231934 48.1585 0.00231934H36.2393L55.5859 27.4508C56.7128 29.0483 58.5486 30.0001 60.5117 30.0001H82.837C84.7909 30.0001 86.6336 29.0483 87.7537 27.4508L94.8698 17.3533L102.195 27.5029C103.322 29.071 105.142 30.0001 107.075 30.0001H119.213L110.438 17.5505C109.318 15.9529 107.475 15.0012 105.521 15.0012Z" fill="white"/>
<path id="Vector_21" d="M28.9461 2.54929C27.8259 0.951734 25.9833 0 24.0293 0H12.1101L22.6843 15.0011H13.6914C11.7375 15.0011 9.89482 15.9529 8.7747 17.5504L0 30H12.1373C14.0686 30 15.8885 29.0709 17.0177 27.5028L24.3429 17.351L31.459 27.4462C32.5859 29.0437 34.4217 29.9955 36.3848 29.9955H48.2881L46.9271 28.0603L28.9461 2.54929Z" fill="white"/>
</g>
<g id="Group_4">
<path id="Vector_22" d="M118.359 8.12371H122.61C123.262 8.12371 123.532 8.4908 123.957 8.91229C121.485 8.91229 119.027 8.91455 116.562 8.91455V4.15588H118.359V8.12144V8.12371Z" fill="white"/>
<path id="Vector_23" d="M126.227 8.93042L129.326 4.17175H131.687L134.79 8.93042H132.689L131.959 7.811H128.858L129.244 7.41218C129.471 7.17878 129.758 7.04508 130.087 7.02469H131.446L130.13 5.00792L127.647 8.93042H126.225H126.227Z" fill="white"/>
<path id="Vector_24" d="M138.655 4.16943C139.605 4.16943 140.052 4.65663 140.686 5.22087L143.276 7.52769V4.1717H144.158V8.9213H142.04L137.948 5.1325V8.9213H137.067V4.1717H138.657L138.655 4.16943Z" fill="white"/>
<path id="Vector_25" d="M148.559 8.92137H146.762V4.16724H152.619C153.93 4.16724 155.002 5.23454 155.002 6.54204C155.002 7.84954 153.93 8.91911 152.619 8.91911H148.559V8.92137ZM151.917 4.95582H148.559V8.12826H151.849C152.635 8.12826 153.205 7.38274 153.205 6.54204C153.205 5.70134 152.567 4.95582 151.917 4.95582Z" fill="white"/>
</g>
</g>
</g>
</g>
<defs>
<clipPath id="clip0_90_504">
<rect width="155" height="30" fill="white"/>
</clipPath>
</defs>
</svg>
