<svg width="525" height="214" viewBox="0 0 525 214" fill="none" xmlns="http://www.w3.org/2000/svg">
<g clip-path="url(#clip0_33_157)">
<path d="M366.55 189.35V173.17H369.19V189.35H366.55Z" fill="#FEFEFE"/>
<path d="M374.81 189.35V173.17H377.36L384.74 183.31C384.83 183.4 384.94 183.54 385.06 183.71C385.18 183.88 385.29 184.06 385.4 184.23C385.51 184.4 385.59 184.54 385.64 184.65H385.76V173.16H388.31V189.34H385.86L378.38 179.08C378.25 178.89 378.1 178.65 377.91 178.36C377.72 178.07 377.58 177.85 377.49 177.69H377.37V189.34H374.82L374.81 189.35Z" fill="#FEFEFE"/>
<path d="M393.91 189.35V173.17H400.16C401.83 173.17 403.25 173.46 404.43 174.03C405.61 174.6 406.52 175.48 407.15 176.67C407.78 177.86 408.11 179.39 408.11 181.26C408.11 183.13 407.79 184.64 407.15 185.84C406.51 187.04 405.61 187.92 404.43 188.49C403.25 189.06 401.83 189.35 400.16 189.35H393.91ZM396.55 187.09H400.14C400.97 187.09 401.72 186.98 402.37 186.76C403.02 186.54 403.57 186.2 404.02 185.75C404.47 185.3 404.81 184.72 405.03 184.02C405.26 183.32 405.37 182.49 405.37 181.53V181.03C405.37 180.06 405.26 179.22 405.03 178.52C404.8 177.82 404.46 177.24 404.02 176.79C403.58 176.34 403.02 176 402.37 175.78C401.72 175.56 400.97 175.45 400.14 175.45H396.55V187.1V187.09Z" fill="#FEFEFE"/>
<path d="M419.52 189.64C418.14 189.64 416.94 189.42 415.94 188.97C414.93 188.52 414.16 187.83 413.63 186.88C413.1 185.93 412.83 184.74 412.83 183.3V173.18H415.47V183.37C415.47 184.71 415.82 185.71 416.53 186.39C417.24 187.07 418.24 187.4 419.53 187.4C420.82 187.4 421.85 187.06 422.58 186.39C423.31 185.72 423.68 184.71 423.68 183.37V173.18H426.32V183.3C426.32 184.75 426.05 185.94 425.51 186.88C424.97 187.82 424.19 188.52 423.18 188.97C422.17 189.42 420.95 189.64 419.54 189.64H419.52Z" fill="#FEFEFE"/>
<path d="M437.73 189.64C436.85 189.64 436 189.55 435.18 189.37C434.36 189.19 433.64 188.9 433.01 188.5C432.38 188.1 431.89 187.59 431.52 186.97C431.16 186.35 430.98 185.61 430.98 184.74C430.98 184.65 430.98 184.56 430.99 184.47C430.99 184.38 431 184.31 431 184.25H433.64C433.64 184.25 433.64 184.37 433.63 184.46C433.63 184.55 433.62 184.63 433.62 184.7C433.62 185.28 433.79 185.78 434.14 186.19C434.49 186.6 434.97 186.91 435.59 187.11C436.21 187.32 436.92 187.42 437.72 187.42C438.16 187.42 438.58 187.39 438.99 187.34C439.4 187.29 439.77 187.2 440.11 187.08C440.45 186.96 440.74 186.81 440.99 186.63C441.24 186.45 441.44 186.23 441.58 185.98C441.72 185.73 441.79 185.44 441.79 185.11C441.79 184.61 441.64 184.19 441.35 183.86C441.06 183.53 440.67 183.26 440.17 183.03C439.67 182.81 439.12 182.61 438.5 182.44C437.88 182.27 437.24 182.09 436.58 181.92C435.92 181.75 435.28 181.54 434.66 181.31C434.04 181.07 433.48 180.79 432.99 180.45C432.49 180.11 432.1 179.69 431.81 179.18C431.52 178.67 431.37 178.04 431.37 177.3C431.37 176.56 431.52 175.96 431.82 175.41C432.12 174.86 432.55 174.4 433.12 174.03C433.69 173.66 434.36 173.38 435.15 173.19C435.94 173 436.82 172.91 437.82 172.91C438.67 172.91 439.47 173 440.23 173.18C440.98 173.36 441.65 173.64 442.21 174.02C442.78 174.4 443.22 174.88 443.54 175.46C443.86 176.04 444.02 176.73 444.02 177.54V177.82H441.4V177.51C441.4 177.01 441.25 176.58 440.95 176.24C440.65 175.9 440.23 175.63 439.7 175.44C439.16 175.25 438.54 175.16 437.84 175.16C437.01 175.16 436.31 175.24 435.74 175.41C435.17 175.58 434.75 175.8 434.45 176.09C434.15 176.38 434.01 176.73 434.01 177.14C434.01 177.6 434.16 177.97 434.46 178.26C434.76 178.55 435.16 178.8 435.65 179C436.14 179.2 436.7 179.39 437.32 179.55C437.94 179.72 438.58 179.89 439.23 180.07C439.88 180.25 440.52 180.46 441.14 180.69C441.76 180.93 442.32 181.22 442.81 181.56C443.31 181.91 443.7 182.34 444 182.85C444.3 183.36 444.45 183.99 444.45 184.73C444.45 185.89 444.16 186.84 443.58 187.57C443 188.3 442.2 188.83 441.19 189.16C440.18 189.49 439.02 189.66 437.71 189.66L437.73 189.64Z" fill="#FEFEFE"/>
<path d="M453.23 189.35V175.43H447.88V173.17H461.28V175.43H455.88V189.35H453.24H453.23Z" fill="#FEFEFE"/>
<path d="M465.37 189.35V173.17H473.88C475.03 173.17 475.98 173.38 476.73 173.78C477.48 174.19 478.05 174.76 478.43 175.49C478.81 176.22 479 177.07 479 178.05C479 179.13 478.76 180.08 478.27 180.88C477.78 181.68 477.09 182.27 476.19 182.65L479.56 189.35H476.68L473.61 183.1H468V189.35H465.36H465.37ZM468.01 180.88H473.67C474.52 180.88 475.18 180.63 475.64 180.13C476.1 179.63 476.34 178.93 476.34 178.03C476.34 177.48 476.24 177.01 476.03 176.63C475.83 176.24 475.53 175.95 475.13 175.75C474.74 175.55 474.25 175.44 473.67 175.44H468.01V180.89V180.88Z" fill="#FEFEFE"/>
<path d="M484.16 189.35V173.17H486.8V189.35H484.16Z" fill="#FEFEFE"/>
<path d="M490.76 189.35L497.1 173.17H500.47L506.84 189.35H504.01L502.57 185.6H494.9L493.46 189.35H490.75H490.76ZM495.76 183.36H501.7L499.88 178.62C499.83 178.48 499.76 178.28 499.67 178.03C499.58 177.78 499.48 177.5 499.38 177.2C499.28 176.9 499.17 176.6 499.07 176.29C498.97 175.98 498.88 175.7 498.8 175.45H498.66C498.57 175.75 498.45 176.1 498.31 176.51C498.17 176.92 498.03 177.31 497.9 177.69C497.77 178.07 497.65 178.37 497.56 178.61L495.77 183.35L495.76 183.36Z" fill="#FEFEFE"/>
<path d="M510.82 189.35V173.17H513.46V187.06H521.53V189.35H510.82Z" fill="#FEFEFE"/>
<path d="M366.55 212.94V196.76H370.68L373.82 206.57C373.91 206.85 374.01 207.18 374.1 207.54C374.19 207.9 374.28 208.25 374.37 208.58C374.46 208.91 374.52 209.2 374.57 209.45H374.76C374.79 209.21 374.85 208.93 374.93 208.6C375.01 208.27 375.09 207.92 375.18 207.56C375.27 207.2 375.36 206.86 375.45 206.55L378.61 196.76H382.67V212.94H380.05V204.07C380.05 203.47 380.05 202.85 380.07 202.21C380.09 201.57 380.1 200.99 380.12 200.49C380.14 199.99 380.14 199.66 380.14 199.52H379.95C379.92 199.69 379.84 199.99 379.73 200.4C379.61 200.82 379.49 201.26 379.36 201.73C379.23 202.2 379.12 202.61 379.01 202.96L375.73 212.94H373.4L370.12 202.99C370.03 202.69 369.92 202.34 369.81 201.93C369.7 201.52 369.59 201.1 369.48 200.68C369.37 200.26 369.28 199.87 369.2 199.52H369.01C369.03 199.9 369.04 200.36 369.05 200.91C369.05 201.46 369.07 202.02 369.09 202.57C369.11 203.13 369.11 203.63 369.11 204.07V212.94H366.56H366.55Z" fill="#FEFEFE"/>
<path d="M388.29 212.94V196.76H400.84V199.02H390.93V203.52H399.8V205.78H390.93V210.66H400.98V212.92H388.29V212.94Z" fill="#FEFEFE"/>
<path d="M409.99 212.94V199.02H404.64V196.76H418.04V199.02H412.64V212.94H410H409.99Z" fill="#FEFEFE"/>
<path d="M418.6 212.94L424.94 196.76H428.31L434.68 212.94H431.85L430.41 209.19H422.74L421.3 212.94H418.59H418.6ZM423.6 206.95H429.54L427.72 202.21C427.67 202.07 427.6 201.87 427.51 201.62C427.42 201.37 427.32 201.09 427.22 200.79C427.12 200.49 427.01 200.19 426.91 199.88C426.81 199.57 426.72 199.29 426.64 199.04H426.5C426.41 199.34 426.29 199.69 426.15 200.1C426.01 200.51 425.87 200.9 425.74 201.28C425.61 201.66 425.49 201.96 425.4 202.2L423.61 206.94L423.6 206.95Z" fill="#FEFEFE"/>
<path d="M441.5 212.94L435.53 196.76H438.38L442.39 208.06C442.47 208.25 442.55 208.47 442.63 208.72C442.71 208.97 442.79 209.21 442.87 209.44C442.95 209.67 443.02 209.87 443.08 210.04H443.2C443.26 209.87 443.33 209.67 443.41 209.45C443.49 209.23 443.57 209 443.65 208.77C443.73 208.53 443.81 208.31 443.89 208.09L447.85 196.77H450.61L444.62 212.95H441.51L441.5 212.94Z" fill="#FEFEFE"/>
<path d="M454.58 212.94V196.76H467.13V199.02H457.22V203.52H466.09V205.78H457.22V210.66H467.27V212.92H454.58V212.94Z" fill="#FEFEFE"/>
<path d="M472.18 212.94V196.76H480.69C481.84 196.76 482.79 196.97 483.54 197.37C484.29 197.78 484.86 198.35 485.24 199.08C485.62 199.81 485.81 200.66 485.81 201.64C485.81 202.72 485.57 203.67 485.08 204.47C484.59 205.27 483.9 205.86 483 206.24L486.37 212.94H483.49L480.42 206.69H474.81V212.94H472.17H472.18ZM474.82 204.47H480.48C481.33 204.47 481.99 204.22 482.45 203.72C482.91 203.22 483.15 202.52 483.15 201.62C483.15 201.07 483.05 200.6 482.84 200.22C482.64 199.83 482.34 199.54 481.94 199.34C481.55 199.14 481.06 199.03 480.48 199.03H474.82V204.48V204.47Z" fill="#FEFEFE"/>
<path d="M496.78 213.22C495.9 213.22 495.05 213.13 494.23 212.95C493.41 212.77 492.69 212.48 492.06 212.08C491.43 211.68 490.94 211.17 490.57 210.55C490.21 209.93 490.03 209.19 490.03 208.32C490.03 208.23 490.03 208.14 490.04 208.05C490.04 207.96 490.05 207.89 490.05 207.83H492.69C492.69 207.83 492.69 207.95 492.68 208.04C492.68 208.13 492.67 208.21 492.67 208.28C492.67 208.86 492.84 209.36 493.19 209.77C493.54 210.18 494.02 210.49 494.64 210.69C495.26 210.9 495.97 211 496.77 211C497.21 211 497.63 210.97 498.04 210.92C498.45 210.87 498.82 210.78 499.16 210.66C499.5 210.54 499.79 210.39 500.04 210.21C500.29 210.03 500.49 209.81 500.63 209.56C500.77 209.31 500.84 209.02 500.84 208.69C500.84 208.19 500.69 207.77 500.4 207.44C500.11 207.11 499.72 206.84 499.22 206.61C498.72 206.39 498.17 206.19 497.55 206.02C496.93 205.85 496.29 205.67 495.63 205.5C494.97 205.33 494.33 205.12 493.71 204.89C493.09 204.65 492.53 204.37 492.04 204.03C491.54 203.69 491.15 203.27 490.86 202.76C490.57 202.25 490.42 201.62 490.42 200.88C490.42 200.14 490.57 199.54 490.87 198.99C491.17 198.44 491.6 197.98 492.17 197.61C492.74 197.24 493.41 196.96 494.2 196.77C494.99 196.58 495.87 196.49 496.87 196.49C497.72 196.49 498.52 196.58 499.28 196.76C500.03 196.94 500.7 197.22 501.26 197.6C501.83 197.98 502.27 198.46 502.59 199.04C502.91 199.62 503.07 200.31 503.07 201.12V201.4H500.45V201.09C500.45 200.59 500.3 200.16 500 199.82C499.7 199.48 499.28 199.21 498.75 199.02C498.21 198.83 497.59 198.74 496.89 198.74C496.06 198.74 495.36 198.82 494.79 198.99C494.22 199.16 493.8 199.38 493.5 199.67C493.2 199.96 493.06 200.31 493.06 200.72C493.06 201.18 493.21 201.55 493.51 201.84C493.81 202.13 494.21 202.38 494.7 202.58C495.19 202.78 495.75 202.97 496.37 203.13C496.99 203.3 497.63 203.47 498.28 203.65C498.93 203.83 499.57 204.04 500.19 204.27C500.81 204.51 501.37 204.8 501.86 205.14C502.36 205.49 502.75 205.92 503.05 206.43C503.35 206.94 503.5 207.57 503.5 208.31C503.5 209.47 503.21 210.42 502.63 211.15C502.05 211.88 501.25 212.41 500.24 212.74C499.23 213.07 498.07 213.24 496.76 213.24L496.78 213.22Z" fill="#FEFEFE"/>
<path d="M508.37 212.94V196.76H520.92V199.02H511.01V203.52H519.88V205.78H511.01V210.66H521.06V212.92H508.37V212.94Z" fill="#FEFEFE"/>
<path d="M464.43 66.2H424.86L471.4 0.0100098H418.98C410.34 0.0100098 402.27 4.21001 397.3 11.26L367.84 53.17L338.38 11.26C333.44 4.22001 325.33 0.0100098 316.73 0.0100098H262.39L266.49 5.70001L302.1 55.18C307.06 62.1 315.07 66.2 323.58 66.2H358.68L318.17 123.83C316.85 125.71 314.07 125.71 312.75 123.83L306.29 114.62L233.61 11.27C228.68 4.22001 220.57 0.0100098 211.96 0.0100098H159.5L244.65 121.14C249.61 128.19 257.69 132.39 266.33 132.39H364.59C373.19 132.39 381.3 128.19 386.23 121.14L417.55 76.58L449.79 121.37C454.75 128.29 462.76 132.39 471.27 132.39H524.69L486.07 77.45C481.14 70.4 473.03 66.2 464.43 66.2Z" fill="#FEFEFE"/>
<path d="M127.4 11.25C122.47 4.2 114.36 0 105.76 0H53.3L99.84 66.2H60.26C51.66 66.2 43.55 70.4 38.62 77.45L0 132.39H53.42C61.92 132.39 69.93 128.29 74.9 121.37L107.14 76.57L138.46 121.12C143.42 128.17 151.5 132.37 160.14 132.37H212.53L206.54 123.83L127.4 11.25Z" fill="#FEFEFE"/>
<path d="M18.4902 206H55.2702C60.9102 206 63.2502 209.17 66.9302 212.85C45.5502 212.85 24.2902 212.88 2.9502 212.88V171.61H18.4902V206Z" fill="#FEFEFE"/>
<path d="M86.0202 212.98L112.83 171.71H133.26L160.1 212.98H141.93L135.62 203.28H108.79L112.14 199.83C114.1 197.8 116.58 196.65 119.43 196.46H131.19L119.81 178.97L98.3203 212.98H86.0103H86.0202Z" fill="#FEFEFE"/>
<path d="M192.99 171.7C201.21 171.7 205.08 175.92 210.56 180.82L232.96 200.83V171.72H240.58V212.92H222.26L186.86 180.06V212.92H179.24V171.72H192.99V171.7Z" fill="#FEFEFE"/>
<path d="M278.25 212.91H262.71V171.68H313.37C324.7 171.68 333.98 180.94 333.98 192.27C333.98 203.6 324.71 212.88 313.37 212.88H278.25V212.91ZM307.31 178.52H278.25V206.04H306.7C313.5 206.04 318.44 199.57 318.44 192.28C318.44 184.99 312.92 178.52 307.31 178.52Z" fill="#FEFEFE"/>
</g>
<defs>
<clipPath id="clip0_33_157">
<rect width="524.7" height="213.22" fill="white"/>
</clipPath>
</defs>
</svg>
