<svg width="327" height="382" viewBox="0 0 327 382" fill="none" xmlns="http://www.w3.org/2000/svg">
<path fill-rule="evenodd" clip-rule="evenodd" d="M294.052 0.432147C290.034 0.959216 280.629 3.86902 274.22 6.56995C260.898 12.1831 247.26 23.7746 238.245 37.1465C235.705 40.9129 230.952 47.836 227.682 52.5311C224.412 57.2261 216.805 68.1561 210.779 76.82C204.752 85.4838 198.277 94.759 196.39 97.4308C194.504 100.103 189.811 106.843 185.962 112.409C177.608 124.492 175.65 127.308 133.983 187.169C116.107 212.85 98.0075 238.897 93.762 245.05C83.0584 260.564 74.1514 273.4 34.2842 330.762C15.2018 358.219 -0.225026 380.983 0.00248449 381.35C0.229995 381.716 50.7617 382.009 112.295 382C231.966 381.984 234.77 381.899 246.569 377.961C266.109 371.441 278.413 361.69 292.531 341.536C307.135 320.69 309.406 317.431 320.013 302.096C329.685 288.113 351.608 256.534 364.579 237.902C367.524 233.671 372.714 226.203 376.113 221.304C379.511 216.406 385.211 208.208 388.778 203.088C392.346 197.967 397.653 190.316 400.573 186.085C403.492 181.855 408.062 175.297 410.728 171.512C413.395 167.727 416.81 162.808 418.319 160.582C419.827 158.355 424 152.344 427.59 147.223C438.041 132.317 448.283 117.553 470.779 84.9608C475.472 78.1632 480.591 70.8384 482.155 68.684C483.719 66.5296 487.099 61.7325 489.666 58.0244C492.232 54.3163 497.168 47.1891 500.635 42.1864C504.101 37.1837 508.948 30.1569 511.406 26.5703C513.864 22.9836 518.89 15.7819 522.574 10.5671C526.258 5.35147 529.275 0.811054 529.277 0.477486C529.282 -0.128928 298.672 -0.172647 294.052 0.432147Z" fill="#131313"/>
<path fill-rule="evenodd" clip-rule="evenodd" d="M598.578 0.432147C594.559 0.959216 585.155 3.86902 578.746 6.56995C565.424 12.1831 551.786 23.7746 542.771 37.1465C540.231 40.9129 535.477 47.836 532.208 52.5311C528.938 57.2261 521.331 68.1561 515.305 76.82C509.278 85.4838 502.803 94.759 500.916 97.4308C499.029 100.103 494.337 106.843 490.488 112.409C482.134 124.492 480.176 127.308 438.508 187.169C420.633 212.85 402.533 238.897 398.288 245.05C387.584 260.564 378.677 273.4 338.81 330.762C319.728 358.219 304.301 380.983 304.528 381.35C304.756 381.716 355.288 382.009 416.821 382C536.492 381.984 539.296 381.899 551.094 377.961C570.635 371.441 582.939 361.69 597.057 341.536C611.661 320.69 613.932 317.431 624.539 302.096C634.21 288.113 656.134 256.534 669.105 237.902C672.05 233.671 677.24 226.203 680.639 221.304C684.037 216.406 689.737 208.208 693.304 203.088C696.872 197.967 702.179 190.316 705.099 186.085C708.018 181.855 712.588 175.297 715.254 171.512C717.92 167.727 721.336 162.808 722.844 160.582C724.353 158.355 728.526 152.344 732.116 147.223C742.567 132.317 752.808 117.553 775.305 84.9608C779.998 78.1632 785.117 70.8384 786.681 68.684C788.245 66.5296 791.625 61.7325 794.192 58.0244C796.758 54.3163 801.694 47.1891 805.161 42.1864C808.627 37.1837 813.474 30.1569 815.932 26.5703C818.39 22.9836 823.415 15.7819 827.099 10.5671C830.784 5.35147 833.801 0.811054 833.803 0.477486C833.808 -0.128928 603.198 -0.172647 598.578 0.432147Z" fill="#131313"/>
</svg>
